<svg width="64" height="64" viewBox="0 0 64 64" fill="none" xmlns="http://www.w3.org/2000/svg">
  <!-- Rounded square background -->
  <rect width="64" height="64" rx="14" fill="#2563EB"/>
  
  <!-- Heart icon -->
  <path d="M32 48C32 48 16 38 16 26C16 22.6863 17.3125 19.5089 19.6569 17.1645C22.0013 14.8201 25.1787 13.5076 28.4924 13.5076C30.6061 13.5076 32.6424 14.1672 34.3334 15.3963L32 18L29.6666 15.3963C27.9756 14.1672 25.9393 13.5076 23.8256 13.5076C20.5119 13.5076 17.3345 14.8201 14.9901 17.1645C12.6457 19.5089 11.3332 22.6863 11.3332 26C11.3332 38 27.3332 48 27.3332 48H32Z" fill="white"/>
  <path d="M32 48C32 48 48 38 48 26C48 22.6863 46.6875 19.5089 44.3431 17.1645C41.9987 14.8201 38.8213 13.5076 35.5076 13.5076C33.3939 13.5076 31.3576 14.1672 29.6666 15.3963L32 18L34.3334 15.3963C36.0244 14.1672 38.0607 13.5076 40.1744 13.5076C43.4881 13.5076 46.6655 14.8201 49.0099 17.1645C51.3543 19.5089 52.6668 22.6863 52.6668 26C52.6668 38 36.6668 48 36.6668 48H32Z" fill="white"/>
  <path d="M32 18C29.8667 16.2667 27.2 15.3333 24.4 15.3333C21.4783 15.3333 18.6768 16.4938 16.5889 18.5817C14.501 20.6696 13.3405 23.4711 13.3405 26.3928C13.3405 32.7333 19.0667 38.0667 32 46.6667C44.9333 38.0667 50.6595 32.7333 50.6595 26.3928C50.6595 23.4711 49.499 20.6696 47.4111 18.5817C45.3232 16.4938 42.5217 15.3333 39.6 15.3333C36.8 15.3333 34.1333 16.2667 32 18Z" fill="white"/>
</svg>
